<svg width="1306" height="966" viewBox="0 0 1306 966" fill="none" xmlns="http://www.w3.org/2000/svg">
<g clip-path="url(#clip0_5_1194)">
<rect x="277" width="751" height="751" rx="120" fill="#50E3C2"/>
<path fill-rule="evenodd" clip-rule="evenodd" d="M617.616 144.947L543.558 144.947C510.421 144.947 483.558 171.81 483.558 204.947L483.558 546.751C483.558 579.888 510.421 606.751 543.558 606.751L763.674 606.751C796.811 606.751 823.674 579.888 823.674 546.751L823.674 204.947C823.674 171.81 796.811 144.947 763.674 144.947L689.616 144.947V180.947H617.616V144.947Z" fill="white"/>
<path d="M543.558 144.947V162.947V144.947ZM617.616 144.947H635.616V126.947H617.616V144.947ZM483.558 204.947H465.558H483.558ZM483.558 546.751H465.558H483.558ZM543.558 606.751L543.558 588.751H543.558V606.751ZM763.674 606.751V624.751V606.751ZM823.674 546.751H805.674H823.674ZM823.674 204.947H841.674H823.674ZM763.674 144.947V126.947V144.947ZM689.616 144.947V126.947L671.616 126.947V144.947H689.616ZM689.616 180.947V198.947H707.616V180.947H689.616ZM617.616 180.947H599.616V198.947H617.616V180.947ZM543.558 162.947L617.616 162.947V126.947L543.558 126.947V162.947ZM501.558 204.947C501.558 181.751 520.362 162.947 543.558 162.947V126.947C500.48 126.947 465.558 161.869 465.558 204.947H501.558ZM501.558 546.751L501.558 204.947H465.558L465.558 546.751H501.558ZM543.558 588.751C520.362 588.751 501.558 569.947 501.558 546.751H465.558C465.558 589.829 500.48 624.751 543.558 624.751V588.751ZM763.674 588.751L543.558 588.751L543.558 624.751L763.674 624.751V588.751ZM805.674 546.751C805.674 569.947 786.87 588.751 763.674 588.751V624.751C806.752 624.751 841.674 589.829 841.674 546.751H805.674ZM805.674 204.947L805.674 546.751H841.674L841.674 204.947H805.674ZM763.674 162.947C786.87 162.947 805.674 181.751 805.674 204.947H841.674C841.674 161.869 806.752 126.947 763.674 126.947V162.947ZM689.616 162.947L763.674 162.947V126.947L689.616 126.947V162.947ZM671.616 144.947V180.947H707.616V144.947H671.616ZM689.616 162.947H617.616V198.947H689.616V162.947ZM635.616 180.947V144.947H599.616V180.947H635.616Z" fill="#132C45"/>
<path d="M653 180.084L653 375.364" stroke="#132C45" stroke-width="36" stroke-miterlimit="16"/>
<path d="M738.612 290.031L653.248 375.394L567.885 290.031" stroke="#132C45" stroke-width="36" stroke-miterlimit="16"/>
<rect x="617.616" y="108.947" width="72" height="72" stroke="#132C45" stroke-width="36"/>
<rect x="689" y="522.28" width="72" height="72" rx="36" transform="rotate(-180 689 522.28)" fill="#50E3C2" stroke="#132C45" stroke-width="36"/>
<path d="M157.632 962.578V875.098H169.872L171.132 895.798H171.672C176.232 888.718 181.812 883.138 188.412 879.058C195.132 874.978 202.572 872.938 210.732 872.938C213.972 872.938 216.972 873.238 219.732 873.838C222.492 874.318 225.252 875.218 228.012 876.538L224.592 889.318C221.472 888.238 218.832 887.458 216.672 886.978C214.632 886.498 211.872 886.258 208.392 886.258C201.792 886.258 195.432 888.178 189.312 892.018C183.312 895.738 177.672 902.158 172.392 911.278V962.578H157.632ZM298.681 964.738C292.081 964.738 285.901 963.718 280.141 961.678C274.501 959.638 269.521 956.638 265.201 952.678C261.001 948.718 257.641 943.918 255.121 938.278C252.721 932.518 251.521 925.978 251.521 918.658C251.521 911.578 252.721 905.218 255.121 899.578C257.641 893.938 260.941 889.138 265.021 885.178C269.221 881.218 273.961 878.218 279.241 876.178C284.641 874.018 290.281 872.938 296.161 872.938C302.401 872.938 307.981 873.958 312.901 875.998C317.941 877.918 322.141 880.678 325.501 884.278C328.981 887.878 331.621 892.198 333.421 897.238C335.221 902.278 336.121 907.858 336.121 913.978C336.121 915.658 336.061 917.278 335.941 918.838C335.821 920.398 335.641 921.778 335.401 922.978H266.461C267.421 932.938 271.021 940.438 277.261 945.478C283.621 950.398 291.361 952.858 300.481 952.858C305.761 952.858 310.501 952.138 314.701 950.698C319.021 949.138 323.161 947.098 327.121 944.578L332.521 954.298C328.201 957.178 323.221 959.638 317.581 961.678C312.061 963.718 305.761 964.738 298.681 964.738ZM296.521 884.638C292.921 884.638 289.441 885.238 286.081 886.438C282.841 887.638 279.901 889.378 277.261 891.658C274.621 893.818 272.401 896.578 270.601 899.938C268.801 903.298 267.541 907.138 266.821 911.458H322.621C322.021 902.458 319.381 895.738 314.701 891.298C310.141 886.858 304.081 884.638 296.521 884.638ZM392.211 900.298C388.131 900.298 384.651 898.918 381.771 896.158C379.011 893.398 377.631 889.738 377.631 885.178C377.631 880.618 379.011 876.958 381.771 874.198C384.651 871.318 388.131 869.878 392.211 869.878C396.291 869.878 399.711 871.318 402.471 874.198C405.351 876.958 406.791 880.618 406.791 885.178C406.791 889.738 405.351 893.398 402.471 896.158C399.711 898.918 396.291 900.298 392.211 900.298ZM392.211 964.738C388.131 964.738 384.651 963.358 381.771 960.598C379.011 957.838 377.631 954.178 377.631 949.618C377.631 945.058 379.011 941.398 381.771 938.638C384.651 935.758 388.131 934.318 392.211 934.318C396.291 934.318 399.711 935.758 402.471 938.638C405.351 941.398 406.791 945.058 406.791 949.618C406.791 954.178 405.351 957.838 402.471 960.598C399.711 963.358 396.291 964.738 392.211 964.738ZM479.981 962.578V893.998H444.161V873.298H506.441V962.578H479.981ZM492.041 859.258C486.881 859.258 482.621 857.818 479.261 854.938C476.021 852.058 474.401 848.158 474.401 843.238C474.401 838.318 476.021 834.358 479.261 831.358C482.621 828.238 486.881 826.678 492.041 826.678C497.201 826.678 501.401 828.238 504.641 831.358C508.001 834.358 509.681 838.318 509.681 843.238C509.681 848.158 508.001 852.058 504.641 854.938C501.401 857.818 497.201 859.258 492.041 859.258ZM550.83 962.578V873.298H572.43L574.41 885.178H575.13C578.97 881.338 583.35 878.038 588.27 875.278C593.31 872.518 599.19 871.138 605.91 871.138C615.99 871.138 623.37 874.378 628.05 880.858C632.73 887.338 635.07 896.218 635.07 907.498V962.578H608.61V910.918C608.61 904.918 607.65 900.538 605.73 897.778C603.81 895.018 600.39 893.638 595.47 893.638C591.87 893.638 588.69 894.418 585.93 895.978C583.29 897.538 580.41 899.878 577.29 902.998V962.578H550.83ZM702.68 964.738C694.64 964.738 686.78 963.418 679.1 960.778C671.42 958.138 664.7 954.898 658.94 951.058L670.28 934.498C675.8 937.978 681.56 940.618 687.56 942.418C693.56 944.218 699.8 945.118 706.28 945.118C711.2 945.118 714.8 944.398 717.08 942.958C719.36 941.518 720.5 939.718 720.5 937.558C720.5 936.358 720.14 935.278 719.42 934.318C718.82 933.358 717.68 932.518 716 931.798C714.44 930.958 712.22 930.178 709.34 929.458C706.46 928.738 702.86 927.898 698.54 926.938C686.42 924.298 677.72 920.758 672.44 916.318C667.16 911.758 664.52 905.998 664.52 899.038C664.52 894.958 665.48 891.178 667.4 887.698C669.32 884.218 672.02 881.278 675.5 878.878C679.1 876.478 683.42 874.618 688.46 873.298C693.5 871.858 699.2 871.138 705.56 871.138C713.6 871.138 720.86 872.458 727.34 875.098C733.94 877.618 739.58 880.378 744.26 883.378L732.38 899.218C727.82 896.458 723.08 894.358 718.16 892.918C713.24 891.478 708.26 890.758 703.22 890.758C699.02 890.758 695.9 891.418 693.86 892.738C691.82 894.058 690.8 895.738 690.8 897.778C690.8 900.298 692.36 902.098 695.48 903.178C698.6 904.258 703.94 905.638 711.5 907.318C718.34 908.878 724.04 910.558 728.6 912.358C733.16 914.158 736.76 916.198 739.4 918.478C742.04 920.758 743.9 923.338 744.98 926.218C746.06 929.098 746.6 932.338 746.6 935.938C746.6 940.018 745.64 943.798 743.72 947.278C741.8 950.758 738.98 953.818 735.26 956.458C731.66 958.978 727.1 961.018 721.58 962.578C716.18 964.018 709.88 964.738 702.68 964.738ZM827.17 964.738C820.09 964.738 814.09 963.778 809.17 961.858C804.25 959.938 800.23 957.298 797.11 953.938C794.11 950.458 791.95 946.318 790.63 941.518C789.31 936.718 788.65 931.378 788.65 925.498V893.998H766.15V874.378L789.91 873.298L793.33 845.938H815.11V873.298H852.91V893.998H815.11V925.318C815.11 932.158 816.61 937.018 819.61 939.898C822.61 942.658 827.41 944.038 834.01 944.038C837.37 944.038 840.43 943.738 843.19 943.138C846.07 942.538 848.89 941.758 851.65 940.798L856.33 959.878C852.37 961.078 847.99 962.158 843.19 963.118C838.51 964.198 833.17 964.738 827.17 964.738ZM909.179 964.738C904.619 964.738 900.539 964.018 896.939 962.578C893.339 961.258 890.279 959.398 887.759 956.998C885.239 954.478 883.259 951.598 881.819 948.358C880.499 945.118 879.839 941.578 879.839 937.738C879.839 932.698 880.919 928.318 883.079 924.598C885.239 920.758 888.659 917.518 893.339 914.878C898.139 912.238 904.259 910.138 911.699 908.578C919.139 906.898 928.139 905.758 938.699 905.158C938.219 901.078 936.419 897.898 933.299 895.618C930.299 893.338 925.739 892.198 919.619 892.198C915.299 892.198 910.919 892.978 906.479 894.538C902.159 895.978 897.479 897.958 892.439 900.478L883.079 883.198C889.199 879.718 895.739 876.838 902.699 874.558C909.779 872.278 917.159 871.138 924.839 871.138C937.319 871.138 947.159 874.438 954.359 881.038C961.559 887.638 965.159 897.778 965.159 911.458V962.578H943.559L941.579 952.498H940.859C936.299 955.978 931.319 958.918 925.919 961.318C920.519 963.598 914.939 964.738 909.179 964.738ZM917.639 944.218C921.599 944.218 925.319 943.438 928.799 941.878C932.279 940.198 935.579 938.158 938.699 935.758V920.998C932.099 921.358 926.639 921.958 922.319 922.798C917.999 923.638 914.579 924.718 912.059 926.038C909.539 927.238 907.739 928.678 906.659 930.358C905.699 932.038 905.219 933.838 905.219 935.758C905.219 938.638 906.299 940.798 908.459 942.238C910.739 943.558 913.799 944.218 917.639 944.218ZM1047.89 964.738C1036.61 964.738 1028.09 961.438 1022.33 954.838C1016.69 948.118 1013.87 939.058 1013.87 927.658V857.278H985.789V836.398H1040.33V928.738C1040.33 931.498 1040.69 933.838 1041.41 935.758C1042.25 937.558 1043.33 939.058 1044.65 940.258C1046.09 941.338 1047.65 942.118 1049.33 942.598C1051.13 943.078 1052.99 943.318 1054.91 943.318C1056.95 943.318 1059.05 943.138 1061.21 942.778C1063.49 942.298 1066.01 941.518 1068.77 940.438L1074.71 959.878C1072.31 960.598 1070.09 961.258 1068.05 961.858C1066.01 962.458 1063.97 962.938 1061.93 963.298C1059.89 963.778 1057.73 964.138 1055.45 964.378C1053.17 964.618 1050.65 964.738 1047.89 964.738ZM1137.82 964.738C1126.54 964.738 1118.02 961.438 1112.26 954.838C1106.62 948.118 1103.8 939.058 1103.8 927.658V857.278H1075.72V836.398H1130.26V928.738C1130.26 931.498 1130.62 933.838 1131.34 935.758C1132.18 937.558 1133.26 939.058 1134.58 940.258C1136.02 941.338 1137.58 942.118 1139.26 942.598C1141.06 943.078 1142.92 943.318 1144.84 943.318C1146.88 943.318 1148.98 943.138 1151.14 942.778C1153.42 942.298 1155.94 941.518 1158.7 940.438L1164.64 959.878C1162.24 960.598 1160.02 961.258 1157.98 961.858C1155.94 962.458 1153.9 962.938 1151.86 963.298C1149.82 963.778 1147.66 964.138 1145.38 964.378C1143.1 964.618 1140.58 964.738 1137.82 964.738Z" fill="#132C45"/>
</g>
<defs>
<clipPath id="clip0_5_1194">
<rect width="1306" height="966" fill="white"/>
</clipPath>
</defs>
</svg>
