<svg id="reinstall-sign" xmlns="http://www.w3.org/2000/svg" xmlns:xlink="http://www.w3.org/1999/xlink"
     viewBox="0 0 377 535" shape-rendering="geometricPrecision" text-rendering="geometricPrecision">
    <style>
        <![CDATA[#reinstall-sign-arrow_to {animation: reinstall-sign-arrow_to__to 10000ms linear infinite normal forwards}@keyframes reinstall-sign-arrow_to__to { 0% {transform: translate(187.689995px,187.739105px)} 36% {transform: translate(187.689995px,187.739105px);animation-timing-function: cubic-bezier(0.68,-0.55,0.265,1.55)} 44% {transform: translate(187.689995px,147.739105px);animation-timing-function: cubic-bezier(0.68,-0.55,0.265,1.55)} 51% {transform: translate(187.689995px,187.739105px)} 100% {transform: translate(187.689995px,187.739105px)}}]]></style>
    <path id="reinstall-sign-path1"
          d="M152.058,54.9471h-74.058c-33.137,0-60,26.8629-60,59.9999v341.804c0,33.137,26.863,60,60,60h220.115c33.138,0,60-26.863,60-60l.001-341.804c0-33.137-26.863-59.9999-60.001-59.9999h-74.057v35.9999h-72v-35.9999Z"
          clip-rule="evenodd" fill="#fff" fill-rule="evenodd"/>
    <path id="reinstall-sign-path2"
          d="M78,54.9471v18-18Zm74.058,0h18v-18h-18v18ZM18,114.947h-17.999969h17.999969Zm0,341.804h-18h18Zm60,60v-18v18Zm220.115,0v18-18Zm60-60h-18h18Zm.001-341.804h18v0h-18ZM298.115,54.9471v-18v18Zm-74.057,0v-18h-18v18h18Zm0,35.9999v18h18v-18h-18Zm-72,0h-18v18h18v-18ZM78,72.9471h74.058v-36h-74.058v36ZM36,114.947c0-23.1959,18.8041-41.9999,42-41.9999v-36c-43.0782,0-77.999966,34.9218-77.999969,77.9999h35.999969Zm0,341.804v-341.804h-35.999969L0,456.751h36Zm42,42c-23.1959,0-42-18.804-42-42h-36c-.000004,43.078,34.9218,78,78,78v-36Zm220.115,0h-220.115v36h220.115v-36Zm42-42c0,23.196-18.804,42-42,42v36c43.079,0,78-34.922,78-78h-36Zm.001-341.804l-.001,341.804h36l.001-341.804h-36ZM298.115,72.9471c23.196,0,42.001,18.8041,42.001,41.9999h36c0-43.0781-34.922-77.9999-78.001-77.9999v36Zm-74.057,0h74.057v-36h-74.057v36Zm-18-18v35.9999h36v-35.9999h-36Zm18,17.9999h-72v36h72v-36Zm-54,18v-35.9999h-36v35.9999h36Z"
          fill="#132c45"/>
    <g id="reinstall-sign-arrow_to" transform="translate(187.689995,187.739105)">
        <g id="reinstall-sign-arrow" transform="translate(-187.689994,-187.739105)">
            <path id="reinstall-sign-path3" d="M187.442,90.0842v195.2798" fill="none" stroke="#132c45" stroke-width="36"
                  stroke-miterlimit="16"/>
            <path id="reinstall-sign-path4" d="M273.054,200.03L187.69,285.394L102.326,200.03" fill="none"
                  stroke="#132c45" stroke-width="36" stroke-miterlimit="16"/>
        </g>
    </g>
    <rect id="reinstall-sign-rect1" width="72" height="72" rx="0" ry="0" transform="translate(152.058 18.947)"
          fill="#50e3c2" stroke="#132c45" stroke-width="36"/>
    <rect id="reinstall-sign-rect2" width="72" height="72" rx="36" ry="36" transform="matrix(-1 0 0-1 223.442 432.28)"
          fill="#50e3c2" stroke="#132c45" stroke-width="36"/>
</svg>
