<?xml version="1.0" standalone="no"?>
<!DOCTYPE svg PUBLIC "-//W3C//DTD SVG 20010904//EN"
 "http://www.w3.org/TR/2001/REC-SVG-20010904/DTD/svg10.dtd">
<svg version="1.0" xmlns="http://www.w3.org/2000/svg"
 width="700.000000pt" height="700.000000pt" viewBox="0 0 700.000000 700.000000"
 preserveAspectRatio="xMidYMid meet">
<metadata>
Created by potrace 1.14, written by Peter Selinger 2001-2017
</metadata>
<g transform="translate(0.000000,700.000000) scale(0.100000,-0.100000)"
fill="#000000" stroke="none">
<path d="M935 6984 c-472 -79 -843 -452 -920 -925 -13 -82 -15 -396 -15 -2559
0 -2689 -3 -2554 56 -2729 135 -401 473 -689 889 -756 139 -23 4975 -22 5114
0 478 78 854 457 926 932 23 150 22 4973 0 5112 -58 357 -286 665 -609 824
-109 54 -198 82 -320 102 -130 21 -4996 21 -5121 -1z m3075 -998 l0 -164 323
-5 c295 -4 328 -6 397 -26 237 -70 414 -239 497 -476 l28 -80 3 -1705 c3
-1920 9 -1776 -75 -1950 -39 -81 -59 -108 -137 -186 -76 -76 -106 -98 -186
-138 -162 -79 -95 -76 -1356 -76 -1082 0 -1123 1 -1198 20 -255 65 -461 271
-526 526 -20 75 -20 119 -20 1769 0 1657 0 1693 20 1771 64 253 254 449 512
525 67 20 101 22 396 26 l322 5 0 164 0 164 500 0 500 0 0 -164z"/>
<path d="M3347 5814 c-4 -4 -7 -81 -7 -171 l0 -163 168 2 167 3 0 165 0 165
-161 3 c-88 1 -163 -1 -167 -4z"/>
<path d="M2379 5466 c-106 -28 -219 -129 -261 -234 l-23 -57 -3 -1640 c-2
-1197 0 -1656 8 -1700 31 -162 153 -284 315 -315 87 -16 2186 -10 2235 8 110
37 208 131 251 239 l24 58 3 1630 c2 1143 0 1649 -8 1694 -22 130 -109 243
-228 299 l-57 27 -312 3 -313 3 0 -170 0 -171 -170 0 -170 0 0 -617 0 -618
255 255 255 255 120 -120 120 -120 -452 -452 c-249 -249 -457 -453 -463 -453
-13 0 -905 892 -905 905 0 6 52 62 115 125 l115 115 255 -255 255 -255 0 617
0 618 -167 2 -168 3 -3 168 -2 167 -288 -1 c-194 0 -302 -4 -333 -13z m1244
-2511 c120 -31 214 -93 283 -187 186 -253 100 -610 -181 -749 -210 -104 -459
-51 -610 130 -170 205 -145 519 57 695 123 108 298 151 451 111z"/>
<path d="M3466 2628 c-81 -17 -126 -76 -126 -166 0 -121 129 -199 237 -143 63
32 88 74 88 148 0 47 -5 68 -21 89 -46 62 -108 87 -178 72z"/>
</g>
</svg>
