<svg width="34" height="24" viewBox="0 0 34 24" fill="none" xmlns="http://www.w3.org/2000/svg">
    <path fill-rule="evenodd" clip-rule="evenodd" d="M15.4378 11.0595L14.5297 10.1513L21.1459 3.56756C21.9892 2.72432 23.1243 2.27026 24.2919 2.27026C25.4919 2.27026 26.5946 2.72432 27.4378 3.56756C28.2811 4.4108 28.7351 5.51351 28.7351 6.71351C28.7351 7.91351 28.2811 9.01621 27.4378 9.85945L26.2054 11.0919L25.2973 10.1838L26.5297 8.95135C27.1459 8.33513 27.4703 7.55675 27.4703 6.71351C27.4703 5.87026 27.1135 5.05945 26.5297 4.47567C25.9135 3.85945 25.1351 3.53513 24.2919 3.53513C23.4486 3.53513 22.6378 3.85945 22.0541 4.44324L15.4378 11.0595ZM27.0486 13.9135C27.4378 13.6865 27.8919 13.5568 28.3459 13.5568C29.7405 13.5568 30.9081 14.7243 30.9405 16.1513C30.9405 17.5784 29.8054 18.7135 28.3784 18.7135C26.9514 18.7135 25.8162 17.5459 25.8162 16.1513C25.8162 15.6649 25.9459 15.2432 26.173 14.854L19.9459 8.62702L20.8541 7.71891L27.0486 13.9135ZM27.0811 16.1189C27.0811 16.8324 27.6649 17.3838 28.3459 17.3838C29.027 17.3838 29.6108 16.8324 29.6108 16.1189C29.6108 15.4054 29.0595 14.854 28.3459 14.854C27.6324 14.854 27.0811 15.4054 27.0811 16.1189ZM15.7622 19.6865C14.5297 20.9189 12.5189 20.9189 11.2865 19.6865C10.0541 18.454 10.0541 16.4432 11.2865 15.2108L12.5189 13.9784L11.6108 13.0703L10.3784 14.3027C8.62703 16.054 8.62703 18.8757 10.3784 20.5946C11.2541 21.4703 12.3892 21.8919 13.5243 21.8919C14.6595 21.8919 15.7946 21.4703 16.6703 20.5946L23.2865 13.9784L22.3784 13.1027L15.7622 19.6865ZM6.42162 9.43783L7.71892 10.7351L4.11892 14.3351L0.518921 10.7351L4.11892 7.13513L5.51352 8.52972C6.58379 7.71891 7.94595 7.45945 9.21081 7.78378C8.85406 6.32432 9.24325 4.7027 10.3784 3.56756C12.1297 1.84864 14.9189 1.84864 16.6703 3.56756L17.9027 4.79999L16.9946 5.7081L15.7622 4.47567C14.5297 3.24324 12.5189 3.24324 11.2865 4.47567C10.0865 5.7081 10.0541 7.68648 11.2865 8.91891L17.9027 15.5676L16.9946 16.4757L10.3784 9.85945C9.30811 8.78918 7.65406 8.65945 6.42162 9.43783ZM5.90271 10.7351L4.11892 8.95135L2.33514 10.7351L4.11892 12.5189L5.90271 10.7351Z" fill="#132C45"/>
</svg>
